<?xml version="1.0" encoding="utf-8"?>
<!--Designed by Vexels.com - 2018 All Rights Reserved - https://vexels.com/terms-and-conditions/-->
<!DOCTYPE svg PUBLIC "-//W3C//DTD SVG 1.1//EN" "http://www.w3.org/Graphics/SVG/1.1/DTD/svg11.dtd">
<svg version="1.1" id="Layer_1" xmlns="http://www.w3.org/2000/svg" xmlns:xlink="http://www.w3.org/1999/xlink" x="0px" y="0px"
	 width="1200px" height="1200px" viewBox="0 0 1200 1200" enable-background="new 0 0 1200 1200" xml:space="preserve">
<g>
	<path fill="#2E3D8F" d="M1012.907,601.462c0,227.233-184.214,411.446-411.443,411.446c-227.233,0-411.443-184.213-411.443-411.446
		c0-227.23,184.21-411.441,411.443-411.441C828.693,190.021,1012.907,374.231,1012.907,601.462z"/>
	<path fill="none" stroke="#2A3D85" stroke-width="2.9241" stroke-miterlimit="10" d="M1151.46,601.462
		c0,303.759-246.241,550-549.996,550c-303.763,0-550-246.241-550-550c0-303.752,246.237-550,550-550
		C905.219,51.462,1151.46,297.71,1151.46,601.462z"/>
	<polygon fill="#2E3D8F" points="882.766,684.943 732.696,601.104 882.307,516.457 818.963,404.511 666.839,490.574 
		666.839,310.461 536.089,310.461 536.089,491.271 382.893,405.688 320.158,517.986 470.231,601.823 320.617,686.47 383.963,798.42 
		536.089,712.346 536.089,892.47 666.839,892.47 666.839,711.658 820.035,797.242 	"/>
	<polygon fill="#FFFFFF" points="882.766,684.943 732.696,601.104 882.307,516.457 818.963,404.511 666.839,490.574 
		666.839,310.461 536.089,310.461 536.089,491.271 382.893,405.688 320.158,517.986 470.231,601.823 320.617,686.47 383.963,798.42 
		536.089,712.346 536.089,892.47 666.839,892.47 666.839,711.658 820.035,797.242 	"/>
	<g>
		<g>
			<path fill="#2E3D8F" d="M627.126,377.183l-16.998,460.301c0,0-0.344,1.666-1.844,1.666c-1.504,0-1.842-1.66-1.842-1.66
				l-17.004-460.307c-0.385-10.401,7.734-19.154,18.145-19.531c10.402-0.391,19.152,7.728,19.543,18.136
				C627.146,376.239,627.136,376.74,627.126,377.183z"/>
		</g>
		<g>
			<g>
				<path fill="#2E3D8F" d="M589.179,528.199c-0.389-0.224-38.943-22.319-38.938-75.415c0-12.942,8.043-49.907,43.807-49.907
					c3.742,0,9.971,1.341,20.752,12.911c0.262,0.27,1.354,0.846,2.15,1.266c2.951,1.548,7.41,3.881,7.41,8.56
					c0,6.712-4.939,10.708-13.906,11.271c-0.184,0.014-0.377,0.02-0.609,0.02c-3.703,0-19.248-2.16-25.117-6.709
					c-2.184,1.803-7.133,7.874-7.133,25.921c0,7.334,4.182,26.498,12.289,30.324l1.217,0.579l1.516,43.091L589.179,528.199z"/>
			</g>
			<g>
				<path fill="#FFFFFF" d="M594.048,405.1c1.939,0,7.764,0,19.129,12.201c1.689,1.806,8.971,3.507,8.971,8.313
					c0,1.663,0,8.323-11.838,9.059c-0.133,0.013-0.289,0.013-0.465,0.013c-4.551,0-21.6-2.859-24.809-7.269
					c0,0-9.656,3.192-9.656,28.699c0,6.465,3.76,27.705,13.551,32.328l1.33,37.814c0,0-37.807-21.068-37.801-73.474
					C552.46,446.401,556.896,405.1,594.048,405.1 M594.048,400.665c-37.572,0-46.025,38.594-46.025,52.119
					c0,54.381,38.439,76.438,40.078,77.349l6.869,3.829l-0.277-7.864l-1.32-37.804l-0.098-2.71l-2.449-1.155
					c-6.846-3.234-11.014-21.253-11.014-28.313c0-14.403,3.186-20.585,5.219-23.073c7.854,4.6,23.035,6.084,24.814,6.084
					c0.281,0,0.523-0.014,0.746-0.026c14.432-0.901,15.988-9.731,15.988-13.486c0-6.016-5.385-8.84-8.596-10.525
					c-0.58-0.306-1.361-0.709-1.656-0.921C605.021,402.067,598.196,400.665,594.048,400.665L594.048,400.665z"/>
			</g>
		</g>
		<g>
			<g>
				<path fill="#2E3D8F" d="M593.226,665.197c-0.865-0.006-1.686-0.348-2.32-0.976c-17.246-17.251-17.752-39.623-17.752-42.118
					c0-21.783,15.283-38.335,19.379-41.579c4.129-3.267,25.938-26.748,27.428-28.645c3.846-4.874,3.281-7.691,3.273-7.721
					l-0.064-0.3l-0.006-0.394l1.902-34.762l2.502,0.497c22.93,4.588,25.607,28.558,25.066,34.721
					c-1.719,19.668-14.049,31.267-14.57,31.752c-5,4.997-10.314,9.937-15.447,14.713c-6.934,6.438-14.092,13.093-20.658,20.074
					l-0.354,0.381c-2.025,2.145-6.229,6.596-6.082,9.481c0.004,0.039,2.168,41.676,2.168,41.676l-0.438,0.638
					C596.827,663.232,595.286,665.197,593.226,665.197L593.226,665.197z"/>
			</g>
			<g>
				<path fill="#FFFFFF" d="M627.136,511.379c22.18,4.435,23.676,27.912,23.293,32.348c-1.664,19.037-13.867,30.32-13.867,30.32
					c-11.857,11.856-24.729,22.671-36.223,34.898c-2.447,2.604-7.234,7.471-7.031,11.485c0,0.046,2.127,40.925,2.127,40.925
					s-1.139,1.623-2.209,1.623c-0.26,0-0.518-0.098-0.752-0.328c-16.086-16.08-17.094-37.219-17.094-40.547
					c0-20.146,14.092-36.327,18.535-39.835c4.428-3.521,26.355-27.197,27.789-29.009c4.779-6.065,3.674-9.674,3.674-9.674
					L627.136,511.379 M622.987,506.023l-0.277,5.114l-1.76,32.208l-0.064,1.19l0.162,0.228c-0.043,0.664-0.371,2.639-2.824,5.743
					c-1.432,1.779-22.986,25.046-27.076,28.28c-4.26,3.381-20.209,20.645-20.209,43.316c0,2.583,0.518,25.798,18.398,43.68
					c1.049,1.051,2.432,1.63,3.889,1.63c3.043,0,5.098-2.45,5.84-3.501l0.885-1.256l-0.084-1.532c0,0-2.127-40.882-2.127-40.918
					c-0.063-1.282,1.775-3.924,5.473-7.841l0.363-0.381c6.514-6.934,13.643-13.562,20.543-19.971
					c5.145-4.776,10.457-9.713,15.527-14.788c1.197-1.132,13.461-13.187,15.201-33.115c0.578-6.576-2.295-32.169-26.846-37.079
					L622.987,506.023L622.987,506.023z"/>
			</g>
		</g>
		<g>
			<g>
				<path fill="#2E3D8F" d="M598.405,785.435c-8.521-8.17-11.834-25.999-13.08-32.708c-0.119-0.648-0.215-1.172-0.289-1.523
					c-1.396-6.758-1.67-12.48-0.816-17.514c1.881-11.166,9.498-18.666,16.873-25.908c2.703-2.658,5.498-5.412,7.906-8.262
					c8.576-10.154,12.273-22.622,11.301-38.096l-0.195-3.082l2.986,0.807c9.738,2.633,15.318,11.697,15.318,24.875
					c0,15.975-10.994,26.334-21.621,36.35c-3.156,2.973-6.139,5.785-8.805,8.713c-0.293,0.314-0.725,0.768-1.252,1.314
					c-3.943,4.076-6.029,6.645-6.221,7.637c0.014,0.303,1.646,45.716,1.646,45.716l0.197,5.466L598.405,785.435z"/>
			</g>
			<g>
				<path fill="#FFFFFF" d="M622.519,661.283c13.674,3.706,13.674,19.782,13.674,22.74c0,19.596-18.189,30.76-29.852,43.566
					c-1.643,1.805-8.127,8.016-8.043,10.408c0,0.031,1.646,45.846,1.646,45.846c-8.875-8.509-11.943-29.285-12.74-33.092
					c-1.111-5.373-1.719-11.258-0.801-16.701c2.443-14.473,15.387-22.555,24.291-33.093
					C620.345,689.521,623.442,676.071,622.519,661.283 M617.692,655.388l0.391,6.176c0.941,14.879-2.586,26.823-10.781,36.528
					c-2.338,2.769-4.977,5.365-7.768,8.104c-7.617,7.498-15.506,15.248-17.504,27.119c-0.893,5.316-0.625,11.311,0.836,18.338
					c0.072,0.352,0.166,0.85,0.279,1.471c2.012,10.842,5.619,26.152,13.725,33.916l7.898,7.564l-0.393-10.929
					c0,0-1.436-39.95-1.623-45.251c0.871-1.613,4.379-5.248,5.576-6.488c0.539-0.559,0.996-1.027,1.295-1.367
					c2.605-2.855,5.564-5.637,8.684-8.578c10.465-9.855,22.324-21.025,22.324-37.967c0-14.258-6.186-24.109-16.963-27.019
					L617.692,655.388L617.692,655.388z"/>
			</g>
		</g>
		<g>
			<g>
				<path fill="#2E3D8F" d="M602.622,827.078c-2.371,0-4.457-1.432-5.078-3.479c-0.545-1.806,0.166-3.628,1.848-4.74
					c9.725-6.438,14.93-16.867,15.924-19.005v-13.799h2.211c8.404,0,10.627,9.156,10.627,14.004
					c0,14.98-18.691,24.949-23.322,26.618C604.097,826.948,603.358,827.078,602.622,827.078L602.622,827.078z"/>
			</g>
			<g>
				<path fill="#FFFFFF" d="M617.526,788.275c7.207,0,8.412,8.967,8.412,11.784c0,13.994-18.395,23.283-21.855,24.533
					c-0.514,0.182-1.006,0.267-1.461,0.267c-2.645,0-4.164-2.717-2.008-4.151c11.506-7.621,16.912-20.375,16.912-20.375V788.275
					 M617.526,783.844h-4.432v4.432v11.078c-1.307,2.678-6.246,11.905-14.93,17.657c-2.492,1.65-3.57,4.487-2.74,7.227
					c0.895,2.978,3.859,5.057,7.197,5.057c0.992,0,1.988-0.18,2.965-0.53c5.23-1.884,24.789-12.286,24.789-28.704
					C630.376,793.54,626.952,783.844,617.526,783.844L617.526,783.844z"/>
			</g>
		</g>
		<g>
			<line fill="#FFFFFF" x1="604.167" y1="418.267" x2="607.772" y2="418.267"/>
			<path fill="#FFFFFF" d="M607.772,419.373h-3.605c-0.611,0-1.111-0.495-1.111-1.106s0.5-1.112,1.111-1.112h3.605
				c0.611,0,1.109,0.501,1.109,1.112S608.384,419.373,607.772,419.373z"/>
		</g>
		<g>
			<line fill="#FFFFFF" x1="619.075" y1="424.716" x2="622.675" y2="424.716"/>
			<path fill="#FFFFFF" d="M622.675,425.818h-3.6c-0.621,0-1.115-0.491-1.115-1.103c0-0.622,0.494-1.109,1.115-1.109h3.6
				c0.615,0,1.105,0.487,1.105,1.109C623.78,425.327,623.29,425.818,622.675,425.818z"/>
		</g>
	</g>
	<g>
		<path fill="#ED1848" d="M123.634,485.277l8.199,1.722l-4.314,20.534l8.498,1.785l3.879-18.471l7.848,1.653l-3.883,18.464
			l8.559,1.8l4.449-21.182l8.145,1.712l-6.387,30.386l-41.246-8.668L123.634,485.277z"/>
		<path fill="#ED1848" d="M155.808,433.9l18.117,18.228l-1.813,5.306l-25.459,3.285l25.104,8.57l-3.037,8.902l-39.885-13.615
			l4.109-12.042l25.418-2.788l-18.383-17.808l4.094-11.983l39.879,13.616l-3.039,8.902L155.808,433.9z"/>
		<path fill="#ED1848" d="M166.571,371.72l7.539,3.664l-9.182,18.871l7.809,3.797l8.258-16.971l7.209,3.508l-8.254,16.971
			l7.861,3.822l9.467-19.463l7.484,3.641l-13.58,27.92l-37.902-18.436L166.571,371.72z"/>
		<path fill="#ED1848" d="M206.835,331.817c5.713,3.599,7.979,8.187,6.793,13.76l18.443-0.989l-6.176,9.794l-16.357,0.735
			l-3.475,5.508l11.375,7.171l-5.014,7.955l-35.652-22.476l8.523-13.516c3.494-5.541,6.924-8.905,10.281-10.09
			S202.69,329.202,206.835,331.817z M205.026,344.074c-0.26-1.542-1.354-2.922-3.277-4.132c-1.92-1.211-3.559-1.533-4.916-0.964
			c-1.355,0.569-2.836,2.132-4.451,4.679l-3.758,5.971l10.559,6.657l3.664-5.814C204.563,347.751,205.29,345.616,205.026,344.074z"
			/>
		<path fill="#ED1848" d="M241.001,298.257l5.938-7.37l11.641,9.387c1.006,6.183-0.813,12.149-5.459,17.908
			c-3.885,4.818-8.744,7.574-14.565,8.271c-5.832,0.696-11.178-0.921-16.045-4.842c-4.861-3.924-7.578-8.862-8.146-14.82
			c-0.566-5.957,1.051-11.289,4.848-15.998c3.793-4.707,8.645-7.551,14.543-8.527l2.426,8.231c-2.467,0.437-4.441,1.077-5.922,1.92
			c-1.484,0.846-2.809,1.988-3.967,3.43c-2.248,2.784-3.191,5.896-2.838,9.328c0.355,3.433,2.076,6.399,5.178,8.898
			c3.098,2.499,6.314,3.582,9.652,3.254c3.336-0.329,6.026-1.761,8.069-4.295c2.047-2.534,3.264-5.037,3.656-7.51L241.001,298.257z"
			/>
		<path fill="#ED1848" d="M266.266,241.568l5.898,5.947l-14.895,14.778l6.113,6.162l13.398-13.287l5.648,5.689l-13.398,13.292
			l6.152,6.208l15.369-15.247l5.861,5.912l-22.051,21.861l-29.676-29.921L266.266,241.568z"/>
		<path fill="#ED1848" d="M305.234,209.11l7.393-5.814l26.051,33.125l-7.393,5.817l-32.105-8.349l16.322,20.758l-7.393,5.814
			l-26.047-33.125l6.912-5.443l33.031,8.544L305.234,209.11z"/>
		<path fill="#ED1848" d="M365.482,209.31c3.945-2.405,6.221-5.932,6.826-10.582l8.377,2.17
			c-1.285,7.088-4.697,12.318-10.242,15.696c-5.545,3.374-11.176,4.405-16.893,3.087c-5.727-1.316-10.211-4.643-13.461-9.984
			c-3.246-5.336-4.131-10.903-2.65-16.701c1.482-5.799,4.867-10.308,10.154-13.525c5.902-3.596,12.217-4.357,18.939-2.284
			l-1.549,8.706c-4.465-1.613-8.584-1.268-12.361,1.032c-3.02,1.839-5,4.399-5.947,7.679c-0.941,3.283-0.395,6.596,1.643,9.943
			c2.041,3.348,4.689,5.417,7.945,6.207C359.523,211.55,362.596,211.065,365.482,209.31z"/>
		<path fill="#ED1848" d="M414.209,192.946l-8.506,4.016l-7.104-15.053l-24.072-16.844l9.213-4.346l14.926,10.293l1.545-18.061
			l9.215-4.35l-2.316,29.293L414.209,192.946z"/>
		<path fill="#ED1848" d="M490.14,138.479l-4.926,25.223l-5.406,1.478l-17-19.231l6.988,25.59l-9.072,2.479l-11.111-40.654
			l12.273-3.351l16.57,19.472l4.43-25.208l12.213-3.335l11.105,40.654l-9.074,2.479L490.14,138.479z"/>
		<path fill="#ED1848" d="M547.688,112.533l1.188,8.293l-20.77,2.978l1.234,8.596l18.682-2.678l1.133,7.939l-18.676,2.674
			l1.236,8.654l21.426-3.07l1.18,8.237l-30.736,4.402l-5.975-41.718L547.688,112.533z"/>
		<path fill="#ED1848" d="M600.991,115.155c4.127,3.553,6.287,8.606,6.482,15.155c0.197,6.55-1.607,11.791-5.412,15.726
			c-3.799,3.934-9.717,6.018-17.758,6.26l-14.404,0.432l-1.256-42.124l14.887-0.445C591.04,109.934,596.86,111.6,600.991,115.155z
			 M594.839,140.399c2.246-2.238,3.303-5.426,3.182-9.564c-0.125-4.139-1.371-7.285-3.75-9.449c-2.379-2.16-5.957-3.169-10.74-3.025
			l-5.238,0.156l0.764,25.611l5.965-0.176C589.317,143.823,592.591,142.638,594.839,140.399z"/>
		<path fill="#ED1848" d="M626.394,110.47l9.387,0.576l-2.578,42.066l-9.389-0.576L626.394,110.47z"/>
		<path fill="#ED1848" d="M671.55,149.13c4.568,0.686,8.574-0.557,12.025-3.738l5.033,7.041c-5.531,4.613-11.508,6.436-17.924,5.469
			c-6.42-0.967-11.404-3.791-14.943-8.469c-3.547-4.683-4.848-10.113-3.92-16.295c0.934-6.178,3.828-11.017,8.686-14.511
			c4.852-3.498,10.344-4.783,16.461-3.858c6.836,1.027,12.168,4.493,15.994,10.395l-6.77,5.684
			c-2.393-4.099-5.773-6.477-10.145-7.138c-3.496-0.523-6.66,0.169-9.488,2.079s-4.533,4.805-5.121,8.678
			c-0.58,3.878,0.123,7.164,2.115,9.861C665.544,147.024,668.208,148.628,671.55,149.13z"/>
		<path fill="#ED1848" d="M730.526,170.743l-1.494-9.797l-17.098-4.457l-6.088,7.818l-9.686-2.525l28.254-36.186l8.811,2.297
			l6.986,45.375L730.526,170.743z M725.685,138.89l-8.223,10.504l10.207,2.66L725.685,138.89z"/>
		<path fill="#ED1848" d="M751.704,177.778l15.094-39.35l8.777,3.367l-12.09,31.524l16.779,6.433l-3,7.824L751.704,177.778z"/>
		<path fill="#ED1848" d="M844.096,183.261l-16.752,29.592l-8.186-4.637l16.758-29.592l-10.389-5.879l4.012-7.084l28.959,16.402
			l-4.01,7.08L844.096,183.261z"/>
		<path fill="#ED1848" d="M898.918,209.716l-4.852,6.836l-17.107-12.143l-5.027,7.08l15.389,10.918l-4.639,6.543l-15.391-10.922
			l-5.059,7.129l17.648,12.526l-4.816,6.783l-25.32-17.97l24.396-34.367L898.918,209.716z"/>
		<path fill="#ED1848" d="M907.357,260.888c3.451,3.072,7.49,4.217,12.113,3.437l0.377,8.647
			c-7.154,0.844-13.158-0.891-18.006-5.209c-4.852-4.313-7.48-9.399-7.893-15.252c-0.414-5.857,1.457-11.118,5.615-15.791
			c4.152-4.665,9.221-7.138,15.197-7.418c5.977-0.276,11.273,1.64,15.898,5.756c5.162,4.598,7.74,10.412,7.721,17.443l-8.775,1.066
			c0.238-4.74-1.299-8.58-4.604-11.518c-2.639-2.353-5.668-3.498-9.082-3.442c-3.412,0.059-6.422,1.552-9.027,4.48
			c-2.604,2.925-3.811,6.062-3.613,9.413C903.475,255.849,904.836,258.644,907.357,260.888z"/>
		<path fill="#ED1848" d="M973.969,280.638l6.25,7.028l-31.482,28.014l-6.254-7.024l12.387-11.023l-11.141-12.521l-12.385,11.023
			l-6.252-7.024l31.48-28.018l6.252,7.025l-13.146,11.706l11.137,12.521L973.969,280.638z"/>
		<path fill="#ED1848" d="M1011.177,329.777l5.355,7.734l-34.653,23.985l-5.354-7.733l10.289-31.538L965.1,337.255l-5.354-7.734
			l34.655-23.986l5.006,7.24l-10.536,32.445L1011.177,329.777z"/>
		<path fill="#ED1848" d="M1027.519,356.376l4.611,8.196l-36.727,20.663l-4.61-8.195L1027.519,356.376z"/>
		<path fill="#ED1848" d="M1019.538,415.195c1.906,4.21,5.131,6.901,9.674,8.065l-3.17,8.057
			c-6.881-2.138-11.658-6.166-14.332-12.078c-2.678-5.915-3.014-11.631-1.012-17.149c2-5.515,5.85-9.563,11.543-12.14
			c5.695-2.576,11.334-2.775,16.904-0.602c5.572,2.177,9.637,6.084,12.191,11.723c2.85,6.299,2.836,12.656-0.037,19.076
			l-8.453-2.594c2.139-4.232,2.297-8.364,0.479-12.393c-1.461-3.225-3.762-5.502-6.9-6.836c-3.143-1.337-6.5-1.197-10.07,0.42
			c-3.568,1.613-5.947,3.992-7.129,7.132C1018.044,409.014,1018.151,412.12,1019.538,415.195z"/>
		<path fill="#ED1848" d="M1063.839,434.626l3.115,8.869l-39.766,13.958l-3.115-8.872L1063.839,434.626z"/>
		<path fill="#ED1848" d="M1040.306,503.603l7.861-6.039l-4.35-17.12l-9.787-1.563l-2.463-9.699l45.33,7.279l2.24,8.82
			l-36.369,28.023L1040.306,503.603z M1065.87,483.986l-13.17-2.131l2.6,10.226L1065.87,483.986z"/>
		<path fill="#ED1848" d="M1090.396,549.173l1.195,9.328l-41.803,5.355l-1.195-9.331l23.645-23.268l-26.195,3.352l-1.191-9.328
			l41.797-5.353l1.119,8.733l-24.285,23.956L1090.396,549.173z"/>
		<path fill="#ED1848" d="M1065.153,604.719l8.014,0.251l-0.662,21.451l-8.018-0.247L1065.153,604.719z"/>
		<path fill="#ED1848" d="M1082.532,703.459l-8.252-1.479l3.713-20.651l-8.545-1.536l-3.338,18.572l-7.893-1.419l3.338-18.571
			l-8.604-1.549l-3.832,21.305l-8.189-1.471l5.496-30.562l41.477,7.454L1082.532,703.459z"/>
		<path fill="#ED1848" d="M1051.837,755.844l-18.633-17.693l1.652-5.355l25.355-4.025l-25.342-7.838l2.775-8.986l40.26,12.451
			l-3.758,12.156l-25.322,3.527l18.891,17.266l-3.74,12.098l-40.26-12.455l2.779-8.982L1051.837,755.844z"/>
		<path fill="#ED1848" d="M1042.89,818.339l-7.639-3.445l8.621-19.129l-7.92-3.565l-7.75,17.205l-7.311-3.293l7.75-17.205
			l-7.971-3.592l-8.889,19.736l-7.584-3.416l12.75-28.31l38.426,17.306L1042.89,818.339z"/>
		<path fill="#ED1848" d="M1003.858,859.357c-5.814-3.433-8.215-7.948-7.193-13.555l-18.405,1.536l5.879-9.97l16.329-1.22
			l3.307-5.609l-11.583-6.833l4.78-8.102l36.301,21.409l-8.111,13.763c-3.33,5.642-6.658,9.104-9.982,10.393
			C1011.86,862.452,1008.085,861.847,1003.858,859.357z M1005.31,847.049c0.307,1.536,1.439,2.88,3.396,4.034
			c1.953,1.155,3.604,1.426,4.943,0.817c1.338-0.612,2.775-2.216,4.307-4.813l3.58-6.077l-10.75-6.336l-3.488,5.919
			C1005.661,843.362,1005.001,845.517,1005.31,847.049z"/>
		<path fill="#ED1848" d="M970.729,893.907l-5.723,7.543l-11.912-9.039c-1.188-6.149,0.451-12.169,4.922-18.061
			c3.742-4.933,8.512-7.832,14.32-8.701c5.805-0.868,11.195,0.586,16.176,4.363c4.975,3.777,7.841,8.636,8.583,14.57
			c0.744,5.938-0.713,11.316-4.368,16.138c-3.654,4.819-8.418,7.803-14.283,8.954l-2.668-8.156c2.455-0.508,4.408-1.207,5.861-2.096
			c1.459-0.889,2.746-2.069,3.863-3.543c2.16-2.851,3.016-5.987,2.561-9.41s-2.268-6.338-5.439-8.742
			c-3.17-2.404-6.42-3.391-9.746-2.964c-3.328,0.429-5.973,1.938-7.941,4.532c-1.969,2.593-3.113,5.131-3.43,7.616L970.729,893.907z
			"/>
		<path fill="#ED1848" d="M947.133,951.335l-6.074-5.775l14.449-15.208l-6.293-5.983l-12.998,13.682l-5.811-5.524l12.998-13.679
			l-6.336-6.022l-14.914,15.689l-6.029-5.733l21.393-22.508l30.543,29.035L947.133,951.335z"/>
		<path fill="#ED1848" d="M909.143,984.914l-7.219,6.029l-27.012-32.347l7.217-6.029l32.338,7.398l-16.926-20.27l7.217-6.029
			l27.018,32.352l-6.758,5.642l-33.266-7.571L909.143,984.914z"/>
		<path fill="#ED1848" d="M848.957,986.453c-3.875,2.521-6.045,6.113-6.51,10.779l-8.439-1.92c1.076-7.125,4.336-12.453,9.775-15.99
			c5.441-3.537,11.043-4.733,16.797-3.582c5.758,1.145,10.336,4.34,13.746,9.582c3.406,5.238,4.451,10.779,3.143,16.615
			c-1.314,5.838-4.561,10.445-9.75,13.818c-5.799,3.768-12.088,4.715-18.865,2.84l1.289-8.744c4.508,1.477,8.615,1.012,12.324-1.396
			c2.967-1.926,4.871-4.549,5.717-7.852c0.85-3.309,0.205-6.605-1.934-9.891c-2.135-3.287-4.844-5.277-8.121-5.975
			C854.85,984.047,851.791,984.615,848.957,986.453z"/>
		<path fill="#ED1848" d="M800.66,1004.283l8.389-4.256l7.535,14.834l24.559,16.129l-9.084,4.615l-15.219-9.852l-1.018,18.1
			l-9.084,4.614l1.461-29.347L800.66,1004.283z"/>
		<path fill="#ED1848" d="M726.429,1060.936l4.178-25.359l5.359-1.633l17.57,18.722l-7.748-25.374l8.996-2.746l12.299,40.309
			l-12.164,3.712l-17.135-18.976l-3.682,25.33l-12.111,3.696l-12.301-40.313l8.998-2.742L726.429,1060.936z"/>
		<path fill="#ED1848" d="M669.698,1088.575l-1.434-8.258l20.67-3.592l-1.484-8.554l-18.598,3.234l-1.369-7.903l18.592-3.231
			l-1.494-8.612l-21.328,3.706l-1.424-8.199l30.59-5.316l7.217,41.523L669.698,1088.575z"/>
		<path fill="#ED1848" d="M616.22,1087.551c-4.234-3.433-6.543-8.421-6.932-14.961c-0.387-6.539,1.26-11.83,4.943-15.874
			s9.539-6.31,17.563-6.787l14.385-0.856l2.506,42.07l-14.863,0.885C626.319,1092.477,620.448,1090.982,616.22,1087.551z
			 M621.62,1062.133c-2.18,2.304-3.143,5.521-2.898,9.654c0.246,4.132,1.59,7.245,4.031,9.334c2.439,2.089,6.049,2.99,10.82,2.707
			l5.236-0.313l-1.523-25.58l-5.961,0.358C627.034,1058.547,623.796,1059.829,621.62,1062.133z"/>
		<path fill="#ED1848" d="M591.03,1092.984l-9.404-0.3l1.328-42.122l9.402,0.297L591.03,1092.984z"/>
		<path fill="#ED1848" d="M544.749,1055.678c-4.588-0.553-8.557,0.813-11.908,4.093l-5.244-6.888
			c5.395-4.776,11.316-6.773,17.756-5.996c6.447,0.774,11.508,3.452,15.188,8.023c3.68,4.574,5.143,9.963,4.398,16.17
			c-0.748,6.205-3.498,11.125-8.252,14.762c-4.746,3.642-10.193,5.086-16.342,4.348c-6.863-0.83-12.293-4.136-16.291-9.921
			l6.598-5.886c2.516,4.031,5.961,6.309,10.35,6.836c3.514,0.423,6.65-0.361,9.424-2.355c2.771-1.991,4.391-4.936,4.859-8.827
			s-0.332-7.155-2.4-9.794C550.812,1057.604,548.101,1056.081,544.749,1055.678z"/>
		<path fill="#ED1848" d="M485.124,1035.688l1.701,9.761l17.182,4.1l5.93-7.944l9.734,2.318l-27.49,36.773l-8.854-2.112
			l-7.936-45.218L485.124,1035.688z M490.636,1067.434l8-10.676l-10.268-2.446L490.636,1067.434z"/>
		<path fill="#ED1848" d="M463.747,1029.373l-13.939,39.771l-8.874-3.11l11.165-31.862l-16.956-5.941l2.771-7.91L463.747,1029.373z"
			/>
		<path fill="#ED1848" d="M371.26,1026.623l15.869-30.074l8.318,4.391l-15.871,30.076l10.559,5.57l-3.801,7.196l-29.432-15.532
			l3.799-7.197L371.26,1026.623z"/>
		<path fill="#ED1848" d="M315.688,1001.811l4.65-6.973l17.461,11.629l4.811-7.227l-15.703-10.461l4.441-6.672l15.709,10.459
			l4.848-7.277l-18.016-11.996l4.611-6.927l25.844,17.212l-23.361,35.08L315.688,1001.811z"/>
		<path fill="#ED1848" d="M305.768,950.944c-3.539-2.971-7.613-3.996-12.211-3.075l-0.631-8.632
			c7.125-1.057,13.178,0.501,18.148,4.669c4.979,4.168,7.76,9.172,8.346,15.013c0.586,5.84-1.129,11.156-5.145,15.949
			c-4.008,4.788-9.002,7.411-14.969,7.866c-5.965,0.453-11.32-1.305-16.064-5.279c-5.299-4.438-8.043-10.178-8.238-17.206
			l8.742-1.327c-0.094,4.744,1.553,8.538,4.939,11.375c2.711,2.274,5.775,3.328,9.182,3.169c3.414-0.156,6.377-1.737,8.893-4.74
			c2.518-3.004,3.631-6.176,3.332-9.518C309.799,955.867,308.354,953.111,305.768,950.944z"/>
		<path fill="#ED1848" d="M238.532,933.095l-6.455-6.84l30.647-28.928l6.455,6.84l-12.057,11.381l11.508,12.191l12.055-11.381
			l6.459,6.839l-30.65,28.928l-6.455-6.843l12.803-12.084l-11.508-12.188L238.532,933.095z"/>
		<path fill="#ED1848" d="M199.911,885.091l-5.576-7.571l33.936-24.991l5.58,7.574l-9.361,31.827l21.261-15.663l5.58,7.574
			l-33.935,24.991l-5.219-7.086l9.582-32.741L199.911,885.091z"/>
		<path fill="#ED1848" d="M182.794,858.97l-4.844-8.056l36.107-21.731l4.848,8.06L182.794,858.97z"/>
		<path fill="#ED1848" d="M189.058,799.946c-2.027-4.152-5.33-6.745-9.904-7.776l2.936-8.144c6.936,1.936,11.83,5.82,14.68,11.65
			c2.85,5.834,3.352,11.538,1.514,17.111c-1.84,5.57-5.57,9.731-11.188,12.471c-5.615,2.746-11.24,3.111-16.877,1.1
			c-5.635-2.014-9.809-5.797-12.529-11.361c-3.031-6.211-3.205-12.568-0.518-19.069l8.521,2.343
			c-2.014,4.298-2.053,8.434-0.113,12.406c1.553,3.179,3.918,5.388,7.094,6.631c3.182,1.242,6.535,1.005,10.057-0.713
			c3.52-1.725,5.824-4.168,6.916-7.34C190.739,806.086,190.54,802.981,189.058,799.946z"/>
		<path fill="#ED1848" d="M144.183,781.774l-3.373-8.778l39.342-15.115l3.371,8.785L144.183,781.774z"/>
		<path fill="#ED1848" d="M165.696,712.18l-7.676,6.27l4.848,16.988l9.834,1.266l2.746,9.623l-45.525-5.938l-2.5-8.752
			l35.527-29.082L165.696,712.18z M140.724,732.541l13.227,1.74l-2.895-10.145L140.724,732.541z"/>
		<path fill="#ED1848" d="M114.288,668.136l-1.471-9.293l41.627-6.589l1.469,9.293l-22.945,23.957l26.084-4.126l1.471,9.289
			l-41.627,6.589l-1.377-8.697l23.566-24.666L114.288,668.136z"/>
		<path fill="#ED1848" d="M137.878,611.916l-8.021-0.01l0.023-21.465l8.02,0.01L137.878,611.916z"/>
	</g>
</g>
</svg>
